<svg width="101" height="100" viewBox="0 0 101 100" fill="none" xmlns="http://www.w3.org/2000/svg">
<path d="M65.4417 60.9167C60.8292 67.6625 54.075 70.85 46.1708 70.85C36.5709 70.85 28.35 63.4625 29.5333 53.6667C30.8417 42.8 39.2833 38.125 53.3167 36.4042C55.8208 36.1 56.8583 36.0125 62.2625 35.6125L62.8375 35.5708V34.675C62.8334 27.1917 58.3875 22.0833 52.4167 22.0833C46.4292 22.0833 42.25 25.1958 39.6875 32.6083L31.8125 29.8917C35.5083 19.1833 42.8042 13.75 52.4167 13.75C63.2584 13.75 71.1667 22.825 71.1667 34.675C71.1667 45.7125 71.8458 54.4917 73.1792 57.8292C74.6625 61.55 75.2042 62.4833 76.8625 64.55L70.3625 69.7625C68.1792 67.0458 67.225 65.3958 65.4375 60.9208L65.4417 60.9167ZM88.9042 85.6042C87.7792 86.4375 85.8167 85.9417 86.7042 83.7708C87.8042 81.0708 88.9833 77.9042 87.7958 76.4708C86.9208 75.4083 85.8459 74.8792 83.5167 74.8792C81.6 74.8792 80.6417 75.1292 79.3708 75.2125C78.5209 75.2708 78.1459 73.975 78.9917 73.3792C80.0792 72.6083 81.2583 72.0042 82.6167 71.5958C87.4083 70.1625 93.0542 70.95 93.7417 71.9417C95.2625 74.15 92.9083 82.6458 88.9083 85.6083M83.9834 81.0917C82.9027 82.1383 81.7484 83.1061 80.5292 83.9875C71.6875 90.7208 60.2334 94.2375 50.2875 94.2375C34.275 94.2375 19.9542 86.7667 9.08751 74.2583C8.15418 73.3 8.92501 71.9 10.0167 72.6583C21.725 81.3125 36.2167 86.5458 51.2167 86.5458C60.6583 86.5458 70.8334 84.3083 80.5292 79.4958C81.2084 79.175 81.9667 78.7375 82.6292 78.4333C84.1583 77.5583 85.5042 79.7083 83.9834 81.0917ZM62.8834 43.925C57.6375 44.3167 56.65 44.3958 54.3333 44.6792C43.6958 45.9833 38.5125 48.8583 37.8083 54.6708C37.2875 59.0167 41.1833 62.5208 46.175 62.5208C54.6708 62.5208 60.8292 57.4042 62.9333 43.925H62.8834Z" fill="black"/>
</svg>
