<svg width="101" height="100" viewBox="0 0 101 100" fill="none" xmlns="http://www.w3.org/2000/svg">
<path d="M66.4474 35.511C64.6146 35.3676 62.6501 35.8054 59.6355 36.9563C59.8873 36.8594 56.7603 38.08 55.8808 38.3899C53.9356 39.068 52.3353 39.44 50.5413 39.44C48.7666 39.44 47.1314 39.0835 45.2521 38.4519C44.5941 38.2278 43.9416 37.9875 43.2954 37.7312L41.5556 37.0454C39.0447 36.0612 37.6343 35.6892 36.4602 35.7202C31.9925 35.7744 27.769 38.3551 25.3123 42.6251C20.3061 51.3163 23.0805 67.0326 30.4 77.6186C34.2942 83.2138 36.4292 85.2132 37.2855 85.1861C38.1457 85.1473 38.7812 84.9652 40.3234 84.3142L40.9666 84.0391C44.8647 82.3768 47.5925 81.6445 51.7037 81.6445C55.6599 81.6445 58.3025 82.3652 62.0456 83.9771L62.6966 84.2561C64.2349 84.9148 64.789 85.0621 65.7654 85.0388C67.1487 85.0195 68.8575 83.423 72.651 77.8549C73.6894 76.3399 74.6077 74.7435 75.4021 73.1277C74.8813 72.6975 74.376 72.249 73.887 71.7831C68.8885 67.0248 65.8003 60.6081 65.715 52.6803C65.6327 46.8139 67.5622 41.0964 71.1824 36.4797C69.6635 35.9189 68.0683 35.5923 66.4513 35.511M67.0519 27.7846C69.7952 27.9706 77.6533 28.8075 82.7681 36.2937C82.3496 36.5262 73.3756 41.7339 73.4685 52.6144C73.608 65.6338 84.8605 69.9581 85 70.0046C84.907 70.33 83.1866 76.1888 79.0483 82.2335C75.468 87.4877 71.7481 92.6955 65.8894 92.7885C60.1237 92.928 58.2638 89.3941 51.7076 89.3941C45.1049 89.3941 43.059 92.6955 37.6188 92.928C31.946 93.114 27.6682 87.2552 24.0414 82.0475C16.6483 71.353 11.022 51.9169 18.6012 38.758C22.3675 32.2019 29.0632 28.0636 36.3633 27.9706C41.8966 27.8311 47.1508 31.6904 50.5451 31.6904C53.893 31.6904 59.8912 27.2266 67.0519 27.7846ZM62.6346 20.7169C59.6122 24.3437 54.6834 27.1801 49.8942 26.8081C49.2432 21.8794 51.6611 16.7181 54.451 13.5098C57.5663 9.88292 62.7741 7.18605 67.0984 7.00006C67.6563 12.0218 65.6569 17.0901 62.6346 20.7169Z" fill="black"/>
</svg>
