<svg width="50" height="50" viewBox="0 0 50 50" fill="none" xmlns="http://www.w3.org/2000/svg">
<path d="M40.625 28.125C39.2431 28.1291 37.9017 28.5915 36.8108 29.4398C35.72 30.2881 34.9413 31.4742 34.5969 32.8125H28.125C26.8822 32.8113 25.6906 32.317 24.8118 31.4382C23.933 30.5594 23.4387 29.3678 23.4375 28.125V21.875C23.4314 20.179 22.8681 18.532 21.8344 17.1875H34.5969C34.9772 18.6604 35.8816 19.944 37.1406 20.7978C38.3997 21.6516 39.9269 22.0169 41.4359 21.8252C42.945 21.6335 44.3324 20.898 45.338 19.7566C46.3436 18.6152 46.8984 17.1462 46.8984 15.625C46.8984 14.1038 46.3436 12.6348 45.338 11.4934C44.3324 10.352 42.945 9.61649 41.4359 9.42481C39.9269 9.23314 38.3997 9.59842 37.1406 10.4522C35.8816 11.306 34.9772 12.5896 34.5969 14.0625H15.4031C15.0228 12.5896 14.1184 11.306 12.8594 10.4522C11.6003 9.59842 10.0732 9.23314 8.56407 9.42481C7.05498 9.61649 5.66761 10.352 4.662 11.4934C3.65639 12.6348 3.10159 14.1038 3.10159 15.625C3.10159 17.1462 3.65639 18.6152 4.662 19.7566C5.66761 20.898 7.05498 21.6335 8.56407 21.8252C10.0732 22.0169 11.6003 21.6516 12.8594 20.7978C14.1184 19.944 15.0228 18.6604 15.4031 17.1875H15.625C16.8678 17.1887 18.0594 17.683 18.9382 18.5618C19.817 19.4406 20.3113 20.6322 20.3125 21.875V28.125C20.315 30.1962 21.1389 32.1819 22.6035 33.6465C24.0681 35.1111 26.0538 35.935 28.125 35.9375H34.5969C34.8909 37.067 35.4957 38.0915 36.3428 38.8945C37.1898 39.6975 38.245 40.2469 39.3886 40.4802C40.5323 40.7136 41.7184 40.6216 42.8123 40.2146C43.9062 39.8076 44.8641 39.102 45.5771 38.1779C46.2901 37.2539 46.7297 36.1484 46.8459 34.987C46.9621 33.8256 46.7503 32.6549 46.2346 31.6079C45.7188 30.5609 44.9197 29.6795 43.9281 29.0638C42.9365 28.4481 41.7922 28.1229 40.625 28.125ZM40.625 12.5C41.2431 12.5 41.8473 12.6833 42.3612 13.0267C42.8751 13.37 43.2756 13.8581 43.5121 14.4291C43.7487 15.0001 43.8105 15.6285 43.69 16.2347C43.5694 16.8408 43.2718 17.3977 42.8347 17.8347C42.3977 18.2717 41.8409 18.5694 41.2347 18.69C40.6285 18.8105 40.0001 18.7486 39.4291 18.5121C38.8581 18.2756 38.37 17.8751 38.0267 17.3612C37.6833 16.8473 37.5 16.2431 37.5 15.625C37.5008 14.7965 37.8303 14.0021 38.4162 13.4162C39.0021 12.8303 39.7965 12.5008 40.625 12.5ZM9.375 18.75C8.75694 18.75 8.15275 18.5667 7.63885 18.2233C7.12494 17.88 6.7244 17.3919 6.48788 16.8209C6.25136 16.2499 6.18947 15.6215 6.31005 15.0153C6.43063 14.4092 6.72826 13.8523 7.1653 13.4153C7.60233 12.9783 8.15916 12.6806 8.76535 12.56C9.37154 12.4395 9.99987 12.5014 10.5709 12.7379C11.1419 12.9744 11.63 13.3749 11.9733 13.8888C12.3167 14.4027 12.5 15.0069 12.5 15.625C12.4992 16.4535 12.1697 17.2479 11.5838 17.8338C10.9979 18.4197 10.2036 18.7492 9.375 18.75ZM40.625 37.5C40.0069 37.5 39.4028 37.3167 38.8888 36.9733C38.3749 36.63 37.9744 36.1419 37.7379 35.5709C37.5014 34.9999 37.4395 34.3715 37.5601 33.7653C37.6806 33.1592 37.9783 32.6023 38.4153 32.1653C38.8523 31.7283 39.4092 31.4306 40.0154 31.31C40.6215 31.1895 41.2499 31.2514 41.8209 31.4879C42.3919 31.7244 42.88 32.1249 43.2233 32.6388C43.5667 33.1527 43.75 33.7569 43.75 34.375C43.7488 35.2034 43.4191 35.9976 42.8333 36.5833C42.2476 37.1691 41.4534 37.4988 40.625 37.5Z" fill="#262626"/>
</svg>
