<svg width="101" height="100" viewBox="0 0 101 100" fill="none" xmlns="http://www.w3.org/2000/svg">
<path d="M73.5504 11C73.1269 10.997 72.7093 11.0989 72.3347 11.2966C71.9602 11.4944 71.6405 11.7819 71.4042 12.1333C71.3688 12.1687 71.3369 12.2431 71.3015 12.3139C66.1698 20.8952 62.9965 24.7307 57.5708 24.7307C51.7095 24.7307 43.2168 20.2471 26.7838 12.4521C26.4367 12.2818 26.0548 12.1945 25.6682 12.1971C25.1821 12.2016 24.7068 12.3411 24.2953 12.6C23.8838 12.8589 23.5523 13.227 23.3378 13.6633C23.3378 13.6633 23.3378 13.6987 23.3024 13.7341L15.3197 31.8316C14.7176 33.1137 15.3197 34.6365 16.6017 35.2032C20.115 36.8713 27.1025 40.1756 33.4172 43.2284C43.3832 48.045 51.6563 49.9574 58.5801 49.9574C78.9903 49.9574 87.5857 33.3049 92.6219 25.308C92.7981 25.0216 92.9159 24.7032 92.9686 24.371C93.0212 24.0389 93.0076 23.6996 92.9286 23.3728C92.8496 23.0459 92.7068 22.7379 92.5082 22.4664C92.3097 22.195 92.0595 21.9655 91.7719 21.7912L74.9848 11.425C74.5578 11.1475 74.0596 10.9999 73.5504 11ZM75.0237 19.7725L84.2035 25.4426C78.2537 34.8455 71.4999 42.8743 58.5766 42.8743C52.1911 42.8743 44.7644 40.8485 36.4984 36.85C32.197 34.7755 27.888 32.7166 23.5716 30.6735L27.9065 20.8421C28.5121 21.1325 29.1035 21.4193 29.6844 21.692C43.3336 28.2192 50.8489 31.8139 57.5602 31.8139C65.7164 31.8139 70.4692 26.8132 75.0237 19.7725ZM42.3916 49.9574C21.9779 49.9574 13.3895 66.6914 8.37818 74.6246C7.63444 75.8287 8.02402 77.4331 9.22816 78.1803L26.0649 88.5253C26.3533 88.7037 26.6743 88.8232 27.0091 88.8771C27.344 88.9309 27.6863 88.9179 28.0161 88.8389C28.346 88.7599 28.6569 88.6164 28.9311 88.4167C29.2052 88.217 29.4372 87.965 29.6135 87.6753C34.724 79.0693 37.8831 75.2302 43.3478 75.2302C49.2056 75.2302 57.6912 79.7068 74.1985 87.5266C74.5033 87.6771 74.835 87.7653 75.1742 87.7861C75.5134 87.8069 75.8534 87.7599 76.1743 87.6478C76.4951 87.5357 76.7904 87.3607 77.0428 87.1331C77.2953 86.9056 77.4998 86.63 77.6445 86.3224C77.6799 86.3224 77.6799 86.2835 77.6799 86.2481L85.7016 68.1152C85.9675 67.4934 85.9792 66.7923 85.7342 66.162C85.4893 65.5318 85.0072 65.0225 84.3912 64.7436C80.8744 63.0719 73.8763 59.7641 67.5935 56.7396C57.6133 51.8876 49.326 49.9574 42.3951 49.9574H42.3916ZM42.3916 57.0406C48.7806 57.0406 56.2214 59.0876 64.5265 63.1286C68.9676 65.2642 73.7558 67.5379 77.432 69.2839L73.0688 79.1472C72.4157 78.8371 71.7629 78.5266 71.1103 78.2158C57.5177 71.724 50.0308 68.1506 43.3442 68.1506C35.1774 68.1506 30.4423 73.123 25.9267 80.1317L16.7859 74.5148C22.7393 65.1013 29.4825 57.0406 42.3916 57.0406Z" fill="black"/>
</svg>
