<svg width="101" height="100" viewBox="0 0 101 100" fill="none" xmlns="http://www.w3.org/2000/svg">
<path d="M50.6667 89.9999C45.4138 89.9999 40.2124 88.9653 35.3594 86.9551C30.5063 84.9449 26.0968 81.9986 22.3824 78.2842C18.6681 74.5699 15.7217 70.1603 13.7115 65.3073C11.7013 60.4543 10.6667 55.2528 10.6667 49.9999C10.6667 44.7471 11.7013 39.5456 13.7115 34.6926C15.7217 29.8396 18.6681 25.43 22.3824 21.7157C26.0968 18.0013 30.5063 15.0549 35.3594 13.0448C40.2124 11.0346 45.4138 9.99994 50.6667 9.99994C61.2753 9.99994 71.4495 14.2142 78.951 21.7157C86.4524 29.2171 90.6667 39.3913 90.6667 49.9999C90.6667 60.6086 86.4524 70.7828 78.951 78.2842C71.4495 85.7857 61.2753 89.9999 50.6667 89.9999ZM50.6667 89.9999V44.2857C50.6667 41.2546 51.8708 38.3477 54.014 36.2044C56.1573 34.0612 59.0642 32.8571 62.0953 32.8571H64.9524M36.381 55.7142H64.9524" stroke="black" stroke-width="7"/>
</svg>
