<svg width="35" height="35" viewBox="0 0 35 35" fill="none" xmlns="http://www.w3.org/2000/svg">
<g clip-path="url(#clip0_13_292)">
<g filter="url(#filter0_d_13_292)">
<path fill-rule="evenodd" clip-rule="evenodd" d="M5.83332 17.5C5.83353 15.2548 6.48157 13.0574 7.69968 11.1714C8.91779 9.28535 10.6542 7.79088 12.7006 6.86727C14.747 5.94366 17.0165 5.63015 19.2366 5.96436C21.4568 6.29856 23.5334 7.26628 25.2172 8.75141C26.901 10.2365 28.1205 12.176 28.7294 14.337C29.3383 16.498 29.3107 18.7888 28.65 20.9346C27.9892 23.0803 26.7233 24.9898 25.0042 26.434C23.2852 27.8781 21.1859 28.7956 18.9583 29.0762V20.4166H21.875C22.2618 20.4166 22.6327 20.263 22.9062 19.9895C23.1797 19.716 23.3333 19.3451 23.3333 18.9583C23.3333 18.5715 23.1797 18.2006 22.9062 17.9271C22.6327 17.6536 22.2618 17.5 21.875 17.5H18.9583V14.5833C18.9583 14.1965 19.112 13.8256 19.3855 13.5521C19.6589 13.2786 20.0299 13.125 20.4167 13.125H21.1458C21.5326 13.125 21.9035 12.9713 22.177 12.6978C22.4505 12.4243 22.6042 12.0534 22.6042 11.6666C22.6042 11.2799 22.4505 10.9089 22.177 10.6354C21.9035 10.3619 21.5326 10.2083 21.1458 10.2083H20.4167C19.2563 10.2083 18.1435 10.6692 17.3231 11.4897C16.5026 12.3102 16.0417 13.423 16.0417 14.5833V17.5H13.125C12.7382 17.5 12.3673 17.6536 12.0938 17.9271C11.8203 18.2006 11.6667 18.5715 11.6667 18.9583C11.6667 19.3451 11.8203 19.716 12.0938 19.9895C12.3673 20.263 12.7382 20.4166 13.125 20.4166H16.0417V29.0762C13.2223 28.7207 10.6295 27.3485 8.74999 25.2171C6.87047 23.0857 5.83337 20.3417 5.83332 17.5ZM17.5 32.0833C25.5544 32.0833 32.0833 25.5543 32.0833 17.5C32.0833 9.44558 25.5544 2.91663 17.5 2.91663C9.44561 2.91663 2.91666 9.44558 2.91666 17.5C2.91666 25.5543 9.44561 32.0833 17.5 32.0833Z" fill="white"/>
</g>
</g>
<defs>
<filter id="filter0_d_13_292" x="-1.08334" y="2.91663" width="37.1667" height="37.1666" filterUnits="userSpaceOnUse" color-interpolation-filters="sRGB">
<feFlood flood-opacity="0" result="BackgroundImageFix"/>
<feColorMatrix in="SourceAlpha" type="matrix" values="0 0 0 0 0 0 0 0 0 0 0 0 0 0 0 0 0 0 127 0" result="hardAlpha"/>
<feOffset dy="4"/>
<feGaussianBlur stdDeviation="2"/>
<feComposite in2="hardAlpha" operator="out"/>
<feColorMatrix type="matrix" values="0 0 0 0 0 0 0 0 0 0 0 0 0 0 0 0 0 0 0.25 0"/>
<feBlend mode="normal" in2="BackgroundImageFix" result="effect1_dropShadow_13_292"/>
<feBlend mode="normal" in="SourceGraphic" in2="effect1_dropShadow_13_292" result="shape"/>
</filter>
<clipPath id="clip0_13_292">
<rect width="35" height="35" fill="white"/>
</clipPath>
</defs>
</svg>
