<svg width="100" height="100" viewBox="0 0 100 100" fill="none" xmlns="http://www.w3.org/2000/svg">
<path d="M65.7689 33.5688C61.5597 29.8214 56.1156 27.7593 50.48 27.7777C37.9467 27.7777 27.7778 37.7288 27.7778 49.9999C27.7778 62.271 37.9422 72.2222 50.4844 72.2222C65.9067 72.2222 71.6 60.7999 72.2222 51.8533H53.7378" stroke="black" stroke-width="7"/>
<path d="M90 32.2222V67.7778C90 73.6715 87.6587 79.3238 83.4913 83.4913C79.3238 87.6587 73.6715 90 67.7778 90H32.2222C26.3285 90 20.6762 87.6587 16.5087 83.4913C12.3413 79.3238 10 73.6715 10 67.7778V32.2222C10 26.3285 12.3413 20.6762 16.5087 16.5087C20.6762 12.3413 26.3285 10 32.2222 10H67.7778C73.6715 10 79.3238 12.3413 83.4913 16.5087C87.6587 20.6762 90 26.3285 90 32.2222Z" stroke="black" stroke-width="7" stroke-linecap="round" stroke-linejoin="round"/>
</svg>
