<svg width="111" height="15" viewBox="0 0 111 15" fill="none" xmlns="http://www.w3.org/2000/svg">
<path d="M0.28 14.5V0.499999H5.98C7.47333 0.499999 8.78 0.799999 9.9 1.4C11.0333 1.98667 11.9133 2.80667 12.54 3.86C13.1667 4.91333 13.48 6.12667 13.48 7.5C13.48 8.87333 13.1667 10.0867 12.54 11.14C11.9133 12.1933 11.0333 13.02 9.9 13.62C8.78 14.2067 7.47333 14.5 5.98 14.5H0.28ZM1.76 13.22H5.9C7.14 13.22 8.21333 12.98 9.12 12.5C10.04 12.0067 10.7533 11.3333 11.26 10.48C11.7667 9.61333 12.02 8.62 12.02 7.5C12.02 6.36667 11.7667 5.37333 11.26 4.52C10.7533 3.66667 10.04 3 9.12 2.52C8.21333 2.02667 7.14 1.78 5.9 1.78H1.76V13.22ZM16.8034 14.5V0.499999H18.2834V14.5H16.8034ZM22.8386 14.5V0.499999H24.0586L30.4586 11.42H29.8186L36.1586 0.499999H37.3786V14.5H35.9586V2.72H36.2986L30.4586 12.72H29.7586L23.8786 2.72H24.2586V14.5H22.8386ZM43.2602 6.76H50.6602V8.02H43.2602V6.76ZM43.4202 13.22H51.8402V14.5H41.9402V0.499999H51.5402V1.78H43.4202V13.22ZM55.3191 14.5V0.499999H56.5391L66.1991 12.66H65.5591V0.499999H67.0191V14.5H65.7991L56.1591 2.34H56.7991V14.5H55.3191ZM74.3086 14.5V1.78H69.3886V0.499999H80.7086V1.78H75.7886V14.5H74.3086ZM88.9977 14.62C87.9443 14.62 86.9643 14.4467 86.0577 14.1C85.1643 13.74 84.3843 13.24 83.7177 12.6C83.0643 11.9467 82.551 11.1933 82.1777 10.34C81.8177 9.47333 81.6377 8.52667 81.6377 7.5C81.6377 6.47333 81.8177 5.53333 82.1777 4.68C82.551 3.81333 83.0643 3.06 83.7177 2.42C84.3843 1.76667 85.1643 1.26667 86.0577 0.92C86.951 0.559999 87.931 0.379999 88.9977 0.379999C90.051 0.379999 91.0243 0.559999 91.9177 0.92C92.811 1.26667 93.5843 1.76 94.2377 2.4C94.9043 3.04 95.4177 3.79333 95.7777 4.66C96.151 5.52667 96.3377 6.47333 96.3377 7.5C96.3377 8.52667 96.151 9.47333 95.7777 10.34C95.4177 11.2067 94.9043 11.96 94.2377 12.6C93.5843 13.24 92.811 13.74 91.9177 14.1C91.0243 14.4467 90.051 14.62 88.9977 14.62ZM88.9977 13.3C89.8377 13.3 90.611 13.16 91.3177 12.88C92.0377 12.5867 92.6577 12.18 93.1777 11.66C93.711 11.1267 94.1243 10.5133 94.4177 9.82C94.711 9.11333 94.8577 8.34 94.8577 7.5C94.8577 6.66 94.711 5.89333 94.4177 5.2C94.1243 4.49333 93.711 3.88 93.1777 3.36C92.6577 2.82667 92.0377 2.42 91.3177 2.14C90.611 1.84667 89.8377 1.7 88.9977 1.7C88.1577 1.7 87.3777 1.84667 86.6577 2.14C85.9377 2.42 85.311 2.82667 84.7777 3.36C84.2577 3.88 83.8443 4.49333 83.5377 5.2C83.2443 5.89333 83.0977 6.66 83.0977 7.5C83.0977 8.32667 83.2443 9.09333 83.5377 9.8C83.8443 10.5067 84.2577 11.1267 84.7777 11.66C85.311 12.18 85.9377 12.5867 86.6577 12.88C87.3777 13.16 88.1577 13.3 88.9977 13.3ZM99.655 14.5V0.499999H104.895C106.082 0.499999 107.102 0.693333 107.955 1.08C108.808 1.45333 109.462 2 109.915 2.72C110.382 3.42667 110.615 4.28667 110.615 5.3C110.615 6.28667 110.382 7.14 109.915 7.86C109.462 8.56667 108.808 9.11333 107.955 9.5C107.102 9.87333 106.082 10.06 104.895 10.06H100.475L101.135 9.38V14.5H99.655ZM109.215 14.5L105.615 9.42H107.215L110.835 14.5H109.215ZM101.135 9.5L100.475 8.8H104.855C106.255 8.8 107.315 8.49333 108.035 7.88C108.768 7.26667 109.135 6.40667 109.135 5.3C109.135 4.18 108.768 3.31333 108.035 2.7C107.315 2.08667 106.255 1.78 104.855 1.78H100.475L101.135 1.08V9.5Z" fill="#E1E1E1"/>
</svg>
