<svg width="35" height="35" viewBox="0 0 35 35" fill="none" xmlns="http://www.w3.org/2000/svg">
<g clip-path="url(#clip0_13_304)">
<path d="M26.25 4.375C27.4103 4.375 28.5231 4.83594 29.3436 5.65641C30.1641 6.47688 30.625 7.58968 30.625 8.75V26.25C30.625 27.4103 30.1641 28.5231 29.3436 29.3436C28.5231 30.1641 27.4103 30.625 26.25 30.625H8.75C7.58968 30.625 6.47688 30.1641 5.65641 29.3436C4.83594 28.5231 4.375 27.4103 4.375 26.25V8.75C4.375 7.58968 4.83594 6.47688 5.65641 5.65641C6.47688 4.83594 7.58968 4.375 8.75 4.375H26.25ZM26.25 7.29167H8.75C8.36323 7.29167 7.99229 7.44531 7.7188 7.7188C7.44531 7.99229 7.29167 8.36323 7.29167 8.75V26.25C7.29167 26.6368 7.44531 27.0077 7.7188 27.2812C7.99229 27.5547 8.36323 27.7083 8.75 27.7083H26.25C26.6368 27.7083 27.0077 27.5547 27.2812 27.2812C27.5547 27.0077 27.7083 26.6368 27.7083 26.25V8.75C27.7083 8.36323 27.5547 7.99229 27.2812 7.7188C27.0077 7.44531 26.6368 7.29167 26.25 7.29167ZM11.6667 14.5833C12.0239 14.5834 12.3686 14.7145 12.6355 14.9519C12.9025 15.1892 13.073 15.5163 13.1148 15.871L13.125 16.0417V23.3333C13.1246 23.705 12.9823 24.0625 12.7271 24.3328C12.4719 24.6031 12.1232 24.7658 11.7521 24.7875C11.3811 24.8093 11.0157 24.6886 10.7307 24.45C10.4456 24.2115 10.2624 23.8731 10.2185 23.504L10.2083 23.3333V16.0417C10.2083 15.6549 10.362 15.284 10.6355 15.0105C10.909 14.737 11.2799 14.5833 11.6667 14.5833ZM16.0417 13.125C16.3832 13.1249 16.7139 13.2448 16.9762 13.4636C17.2384 13.6824 17.4155 13.9863 17.4767 14.3223C17.7701 14.1521 18.0735 13.9997 18.3852 13.8658C19.3579 13.4502 20.8148 13.2213 22.1302 13.634C22.82 13.8527 23.5127 14.261 24.026 14.9567C24.4854 15.5765 24.7333 16.3304 24.7829 17.1777L24.7917 17.5V23.3333C24.7913 23.705 24.6489 24.0625 24.3938 24.3328C24.1386 24.6031 23.7899 24.7658 23.4188 24.7875C23.0477 24.8093 22.6824 24.6886 22.3973 24.45C22.1123 24.2115 21.9291 23.8731 21.8852 23.504L21.875 23.3333V17.5C21.875 17.0188 21.7583 16.7942 21.6825 16.6906C21.5737 16.5552 21.4237 16.459 21.2552 16.4165C20.7477 16.256 20.0171 16.3406 19.5315 16.5477C18.8023 16.8598 18.1344 17.3498 17.6794 17.8033L17.5 17.9958V23.3333C17.4996 23.705 17.3573 24.0625 17.1021 24.3328C16.8469 24.6031 16.4982 24.7658 16.1271 24.7875C15.7561 24.8093 15.3907 24.6886 15.1057 24.45C14.8206 24.2115 14.6374 23.8731 14.5935 23.504L14.5833 23.3333V14.5833C14.5833 14.1966 14.737 13.8256 15.0105 13.5521C15.284 13.2786 15.6549 13.125 16.0417 13.125ZM11.6667 10.2083C12.0534 10.2083 12.4244 10.362 12.6979 10.6355C12.9714 10.909 13.125 11.2799 13.125 11.6667C13.125 12.0534 12.9714 12.4244 12.6979 12.6979C12.4244 12.9714 12.0534 13.125 11.6667 13.125C11.2799 13.125 10.909 12.9714 10.6355 12.6979C10.362 12.4244 10.2083 12.0534 10.2083 11.6667C10.2083 11.2799 10.362 10.909 10.6355 10.6355C10.909 10.362 11.2799 10.2083 11.6667 10.2083Z" fill="white"/>
</g>
<defs>
<clipPath id="clip0_13_304">
<rect width="35" height="35" fill="white"/>
</clipPath>
</defs>
</svg>
