<svg width="282" height="37" viewBox="0 0 282 37" fill="none" xmlns="http://www.w3.org/2000/svg">
<path d="M0.7 36V0.999998H16C19.8 0.999998 23.1333 1.73333 26 3.2C28.8667 4.66666 31.1 6.7 32.7 9.3C34.3 11.9 35.1 14.9667 35.1 18.5C35.1 22 34.3 25.0667 32.7 27.7C31.1 30.3 28.8667 32.3333 26 33.8C23.1333 35.2667 19.8 36 16 36H0.7ZM7.2 30.5H15.7C18.3333 30.5 20.6 30 22.5 29C24.4333 28 25.9167 26.6 26.95 24.8C28.0167 23 28.55 20.9 28.55 18.5C28.55 16.0667 28.0167 13.9667 26.95 12.2C25.9167 10.4 24.4333 9 22.5 8C20.6 7 18.3333 6.5 15.7 6.5H7.2V30.5ZM42.0086 36V0.999998H48.5086V36H42.0086ZM57.9754 36V0.999998H63.3254L78.6254 26.55H75.8254L90.8754 0.999998H96.2254L96.2754 36H90.1254L90.0754 10.65H91.3754L78.5754 32H75.6754L62.6754 10.65H64.1754V36H57.9754ZM111.729 15.55H129.129V20.9H111.729V15.55ZM112.229 30.55H131.979V36H105.729V0.999998H131.279V6.45H112.229V30.55ZM139.225 36V0.999998H144.575L166.525 27.95H163.875V0.999998H170.325V36H164.975L143.025 9.05H145.675V36H139.225ZM186.804 36V6.5H175.204V0.999998H204.904V6.5H193.304V36H186.804ZM225.694 36.5C222.96 36.5 220.444 36.05 218.144 35.15C215.844 34.25 213.844 33 212.144 31.4C210.444 29.7667 209.127 27.8667 208.194 25.7C207.26 23.5 206.794 21.1 206.794 18.5C206.794 15.9 207.26 13.5167 208.194 11.35C209.127 9.15 210.444 7.25 212.144 5.65C213.844 4.01667 215.844 2.75 218.144 1.85C220.444 0.949998 222.944 0.499998 225.644 0.499998C228.377 0.499998 230.877 0.949998 233.144 1.85C235.444 2.75 237.444 4.01667 239.144 5.65C240.844 7.25 242.16 9.15 243.094 11.35C244.027 13.5167 244.494 15.9 244.494 18.5C244.494 21.1 244.027 23.5 243.094 25.7C242.16 27.9 240.844 29.8 239.144 31.4C237.444 33 235.444 34.25 233.144 35.15C230.877 36.05 228.394 36.5 225.694 36.5ZM225.644 30.8C227.41 30.8 229.044 30.5 230.544 29.9C232.044 29.3 233.344 28.45 234.444 27.35C235.544 26.2167 236.394 24.9167 236.994 23.45C237.627 21.95 237.944 20.3 237.944 18.5C237.944 16.7 237.627 15.0667 236.994 13.6C236.394 12.1 235.544 10.8 234.444 9.7C233.344 8.56667 232.044 7.7 230.544 7.1C229.044 6.5 227.41 6.2 225.644 6.2C223.877 6.2 222.244 6.5 220.744 7.1C219.277 7.7 217.977 8.56667 216.844 9.7C215.744 10.8 214.877 12.1 214.244 13.6C213.644 15.0667 213.344 16.7 213.344 18.5C213.344 20.2667 213.644 21.9 214.244 23.4C214.877 24.9 215.744 26.2167 216.844 27.35C217.944 28.45 219.244 29.3 220.744 29.9C222.244 30.5 223.877 30.8 225.644 30.8ZM251.384 36V0.999998H265.784C268.884 0.999998 271.534 1.5 273.734 2.5C275.967 3.5 277.684 4.93333 278.884 6.8C280.084 8.66667 280.684 10.8833 280.684 13.45C280.684 16.0167 280.084 18.2333 278.884 20.1C277.684 21.9333 275.967 23.35 273.734 24.35C271.534 25.3167 268.884 25.8 265.784 25.8H254.984L257.884 22.85V36H251.384ZM274.284 36L265.434 23.3H272.384L281.284 36H274.284ZM257.884 23.55L254.984 20.45H265.484C268.35 20.45 270.5 19.8333 271.934 18.6C273.4 17.3667 274.134 15.65 274.134 13.45C274.134 11.2167 273.4 9.5 271.934 8.3C270.5 7.1 268.35 6.5 265.484 6.5H254.984L257.884 3.3V23.55Z" fill="white"/>
</svg>
