<svg width="50" height="50" viewBox="0 0 50 50" fill="none" xmlns="http://www.w3.org/2000/svg">
<path d="M17.6812 31.0146C18.4937 31.0146 19.1521 31.6687 19.1521 32.4729C19.1513 32.6652 19.1126 32.8555 19.0382 33.0329C18.9639 33.2103 18.8553 33.3713 18.7187 33.5067C18.5821 33.6421 18.4202 33.7493 18.2422 33.8222C18.0642 33.895 17.8736 33.9321 17.6812 33.9312H11.7333C11.5408 33.9323 11.35 33.8955 11.1717 33.8228C10.9935 33.75 10.8313 33.6429 10.6945 33.5074C10.5577 33.372 10.449 33.2109 10.3745 33.0334C10.3 32.8559 10.2612 32.6654 10.2604 32.4729C10.2604 31.6687 10.9208 31.0146 11.7333 31.0146H17.6812ZM19.1187 25.6125C19.9312 25.6125 20.5896 26.2688 20.5896 27.0708C20.5888 27.2633 20.55 27.4538 20.4755 27.6313C20.401 27.8088 20.2923 27.9699 20.1555 28.1054C20.0187 28.2408 19.8565 28.348 19.6783 28.4207C19.5 28.4934 19.3092 28.5303 19.1167 28.5292H11.7667C11.5743 28.53 11.3837 28.4929 11.2057 28.4201C11.0277 28.3472 10.8658 28.24 10.7292 28.1046C10.5926 27.9692 10.4841 27.8082 10.4097 27.6308C10.3353 27.4535 10.2967 27.2632 10.2958 27.0708C10.2958 26.2667 10.9542 25.6125 11.7667 25.6125H19.1187ZM27.1687 18.4042C27.1743 17.2392 27.6422 16.1242 28.4696 15.3041C29.2971 14.4841 30.4163 14.0263 31.5812 14.0313C32.1582 14.0288 32.7301 14.14 33.2641 14.3585C33.7981 14.577 34.2839 14.8986 34.6936 15.3049C35.1033 15.7111 35.4291 16.1941 35.6521 16.7263C35.8752 17.2584 35.9913 17.8293 35.9937 18.4062C35.9871 19.5716 35.5191 20.6869 34.6922 21.508C33.8652 22.3291 32.7466 22.7892 31.5812 22.7875C30.4157 22.7886 29.2971 22.3281 28.4702 21.5067C27.6433 20.6852 27.1754 19.5697 27.1687 18.4042ZM40.2083 32.0687C40.4167 33.3583 39.4208 34.5271 38.1146 34.5229H25.0479C24.7411 34.5235 24.4377 34.4574 24.159 34.3291C23.8802 34.2008 23.6326 34.0135 23.4335 33.78C23.2343 33.5466 23.0883 33.2726 23.0055 32.9771C22.9228 32.6816 22.9052 32.3717 22.9542 32.0687C23.6104 28.0229 25.8521 24.7583 28.7792 23.4646C29.6362 23.9411 30.6006 24.1911 31.5812 24.1911C32.5619 24.1911 33.5263 23.9411 34.3833 23.4646C37.3104 24.7583 39.5542 28.0271 40.2083 32.0687ZM22.0583 23.1312C4.6 23.1312 21.7521 23.1271 11.7646 23.1271C11.5721 23.1282 11.3812 23.0913 11.203 23.0186C11.0247 22.9459 10.8626 22.8387 10.7258 22.7033C10.589 22.5678 10.4802 22.4067 10.4057 22.2292C10.3312 22.0517 10.2925 21.8613 10.2917 21.6687C10.2917 20.8646 10.9521 20.2104 11.7646 20.2104L22.0583 20.2125C22.8708 20.2125 23.5312 20.8667 23.5292 21.6729C23.5286 21.8653 23.4901 22.0557 23.4159 22.2332C23.3416 22.4107 23.233 22.5718 23.0964 22.7073C22.9598 22.8428 22.7977 22.95 22.6196 23.0227C22.4415 23.0955 22.2507 23.1323 22.0583 23.1312ZM11.7667 17.7271C11.5741 17.7285 11.3831 17.6918 11.2048 17.6192C11.0264 17.5465 10.8641 17.4394 10.7273 17.3039C10.5904 17.1684 10.4817 17.0072 10.4073 16.8296C10.3329 16.6519 10.2943 16.4613 10.2937 16.2687C10.2937 15.4646 10.9542 14.8104 11.7667 14.8104H22.0583C22.8687 14.8104 23.5271 15.4625 23.5271 16.2687C23.5249 16.6568 23.3687 17.0282 23.093 17.3012C22.8172 17.5742 22.4443 17.7267 22.0562 17.725L11.7667 17.7271ZM28.0354 38.8042C28.3983 38.8053 28.7468 38.6625 29.0045 38.4071C29.2622 38.1517 29.4082 37.8045 29.4104 37.4417H44.1187V11.1917H5.88333V37.4396H20.5896C20.5896 38.1917 21.2042 38.8021 21.9646 38.8021L28.0354 38.8042ZM50 37.4417V39.4354C50 40.6958 48.9667 41.7187 47.6958 41.7187H2.30417C1.03333 41.7187 0 40.6979 0 39.4354V37.4417H2.94375V11.1604C2.94375 9.57083 4.24167 8.28125 5.84792 8.28125H44.1542C45.7583 8.28125 47.0583 9.57083 47.0583 11.1604V37.4417H50Z" fill="#262626"/>
</svg>
