<svg width="50" height="50" viewBox="0 0 50 50" fill="none" xmlns="http://www.w3.org/2000/svg">
<path d="M5.35713 33.9286C7.32856 33.9286 8.92856 31.5286 8.92856 28.5714C8.92856 25.6143 7.32856 23.2143 5.35713 23.2143C3.38571 23.2143 1.78571 25.6143 1.78571 28.5714C1.78571 31.5286 3.38571 33.9286 5.35713 33.9286ZM16.0714 17.8571C18.0428 17.8571 19.6428 15.4571 19.6428 12.5C19.6428 9.54285 18.0428 7.14285 16.0714 7.14285C14.1 7.14285 12.5 9.54285 12.5 12.5C12.5 15.4571 14.1 17.8571 16.0714 17.8571ZM33.9286 17.8571C35.9 17.8571 37.5 15.4571 37.5 12.5C37.5 9.54285 35.9 7.14285 33.9286 7.14285C31.9571 7.14285 30.3571 9.54285 30.3571 12.5C30.3571 15.4571 31.9571 17.8571 33.9286 17.8571ZM44.6428 33.9286C46.6143 33.9286 48.2143 31.5286 48.2143 28.5714C48.2143 25.6143 46.6143 23.2143 44.6428 23.2143C42.6714 23.2143 41.0714 25.6143 41.0714 28.5714C41.0714 31.5286 42.6714 33.9286 44.6428 33.9286ZM35.7143 35.7143C35.7143 40.6429 29.9286 42.8571 25 42.8571C20.0714 42.8571 14.2857 40.6429 14.2857 35.7143C14.2857 30.7857 17.8571 23.2143 25 23.2143C32.1428 23.2143 35.7143 30.7857 35.7143 35.7143Z" stroke="#262626" stroke-width="3" stroke-linecap="round" stroke-linejoin="round"/>
</svg>
