<svg width="50" height="50" viewBox="0 0 50 50" fill="none" xmlns="http://www.w3.org/2000/svg">
<path d="M5.20834 19.7917H44.7917M5.20834 19.7917V42.7083C5.20834 43.2609 5.42783 43.7908 5.81853 44.1815C6.20923 44.5722 6.73913 44.7917 7.29167 44.7917H42.7083C43.2609 44.7917 43.7908 44.5722 44.1815 44.1815C44.5722 43.7908 44.7917 43.2609 44.7917 42.7083V19.7917M5.20834 19.7917V10.4167C5.20834 9.86413 5.42783 9.33422 5.81853 8.94352C6.20923 8.55282 6.73913 8.33333 7.29167 8.33333H42.7083C43.2609 8.33333 43.7908 8.55282 44.1815 8.94352C44.5722 9.33422 44.7917 9.86413 44.7917 10.4167V19.7917" stroke="#262626" stroke-width="3.5" stroke-linejoin="round"/>
<path d="M16.6667 32.2917L22.9167 38.5417L35.4167 26.0417" stroke="#262626" stroke-width="3.5" stroke-linecap="round" stroke-linejoin="round"/>
<path d="M16.6667 5.20833V13.5417M33.3333 5.20833V13.5417" stroke="#262626" stroke-width="3.5" stroke-linecap="round"/>
</svg>
