<svg width="35" height="35" viewBox="0 0 35 35" fill="none" xmlns="http://www.w3.org/2000/svg">
<g clip-path="url(#clip0_13_300)">
<path fill-rule="evenodd" clip-rule="evenodd" d="M25.9831 10.1923C25.4683 9.45146 24.0917 8.41021 21.8619 8.85938C20.561 9.12042 19.7838 9.76354 19.2894 10.6123C18.7629 11.5165 18.5077 12.7458 18.5077 14.1765C18.5077 14.5632 18.3541 14.9342 18.0806 15.2077C17.8071 15.4811 17.4362 15.6348 17.0494 15.6348C13.599 15.6348 10.3148 14.6096 7.55125 11.8373C7.34261 12.9621 7.26043 14.1067 7.30625 15.2498C7.38354 16.8335 7.76125 18.4217 8.65813 19.7823C9.54042 21.1196 10.9915 22.3446 13.4181 23.1146C13.6559 23.19 13.8704 23.3252 14.041 23.5072C14.2116 23.6891 14.3327 23.9118 14.3927 24.154C14.4527 24.3961 14.4496 24.6496 14.3836 24.8902C14.3177 25.1308 14.1911 25.3504 14.016 25.5281C13.2387 26.3254 12.3578 27.0145 11.3969 27.5771C12.9427 27.7375 14.4331 27.7492 15.8156 27.6238C18.6156 27.37 20.8454 26.5694 22.2396 25.4363C25.1752 23.0563 26.7458 19.5067 26.4542 13.5596C26.4046 12.5825 27.3481 11.5281 27.8031 10.7275C27.1163 10.8558 26.4279 10.8325 25.9831 10.1923ZM6.69959 7.26834C6.96362 7.23765 7.23102 7.27971 7.47289 7.38998C7.71475 7.50024 7.92188 7.67452 8.07188 7.89396C10.2244 11.0425 12.8085 12.3521 15.6771 12.6496C15.8171 11.4231 16.1481 10.2113 16.7708 9.14375C17.6838 7.5775 19.1683 6.42542 21.2888 5.99959C24.22 5.41042 26.4513 6.47209 27.7448 7.77146L30.3581 7.28292C30.6316 7.23168 30.914 7.25974 31.1721 7.36378C31.4301 7.46783 31.653 7.64351 31.8144 7.87011C31.9759 8.09671 32.0691 8.36477 32.0832 8.64264C32.0972 8.92051 32.0315 9.1966 31.8938 9.43834L29.3854 13.8454C29.6144 20.2052 27.8469 24.6444 24.0785 27.7025C22.0806 29.3242 19.2194 30.2444 16.0796 30.5288C12.915 30.8146 9.33771 30.469 5.78229 29.4306C5.47851 29.342 5.21179 29.157 5.02239 28.9035C4.83299 28.65 4.73119 28.3418 4.73234 28.0253C4.73349 27.7089 4.83754 27.4014 5.02878 27.1493C5.22003 26.8972 5.48808 26.7141 5.7925 26.6277C7.58042 26.1188 8.9425 25.6798 10.1719 24.9113C8.42334 23.9838 7.13563 22.7704 6.22417 21.3879C4.95834 19.4658 4.48875 17.3221 4.39542 15.3898C4.30209 13.4575 4.58063 11.6667 4.87521 10.376C5.04292 9.63959 5.23834 8.90167 5.50813 8.19584C5.60329 7.94703 5.76479 7.72904 5.97509 7.56553C6.18539 7.40202 6.435 7.29924 6.69959 7.26834Z" fill="white"/>
</g>
<defs>
<clipPath id="clip0_13_300">
<rect width="35" height="35" fill="white"/>
</clipPath>
</defs>
</svg>
