<svg width="50" height="50" viewBox="0 0 50 50" fill="none" xmlns="http://www.w3.org/2000/svg">
<path d="M7.03781 40.8809C7.7292 41.5723 8.59408 41.9167 9.61458 41.9167H40.3854C41.4061 41.9167 42.2716 41.5715 42.9643 40.8789C43.6557 40.1875 44 39.3226 44 38.3021V17.9479C44 16.9273 43.6549 16.0625 42.9622 15.3711C42.2709 14.6784 41.406 14.3333 40.3854 14.3333H31.5V11.6979C31.5 10.6774 31.1557 9.81253 30.4643 9.12114C29.7716 8.42847 28.9061 8.08334 27.8854 8.08334H22.1146C21.0941 8.08334 20.2293 8.42836 19.538 9.12095C18.8451 9.81231 18.5 10.6772 18.5 11.6979V14.3333H9.61458C8.59409 14.3333 7.72929 14.6784 7.038 15.371C6.34515 16.0623 6 16.9272 6 17.9479V38.3021C6 39.3228 6.34514 40.1883 7.03781 40.8809ZM40.3854 39.3333H9.61458C9.37338 39.3333 9.14045 39.2355 8.91017 39.0066C8.6812 38.7763 8.58333 38.5433 8.58333 38.3021V17.9479C8.58333 17.7067 8.68118 17.4737 8.91011 17.2434C9.14041 17.0145 9.37336 16.9167 9.61458 16.9167H40.3854C40.6266 16.9167 40.8596 17.0145 41.0899 17.2434C41.3188 17.4737 41.4167 17.7067 41.4167 17.9479V38.3021C41.4167 38.5434 41.3188 38.7764 41.0897 39.0067C40.8595 39.2355 40.6266 39.3333 40.3854 39.3333ZM28.9167 14.3333H21.0833V11.6979C21.0833 11.4567 21.1812 11.2237 21.4101 10.9934C21.6404 10.7645 21.8734 10.6667 22.1146 10.6667H27.8854C28.1267 10.6667 28.3596 10.7645 28.5899 10.9935C28.8188 11.2238 28.9167 11.4567 28.9167 11.6979V14.3333Z" fill="#262626" stroke="#262626" stroke-width="0.5"/>
</svg>
