<svg width="360" height="360" viewBox="0 0 360 360" fill="none" xmlns="http://www.w3.org/2000/svg">
<path d="M51.7959 55.7143H7.71429V4.28571H51.7959L29.7551 30L51.7959 55.7143Z" fill="#CE0000" fill-opacity="0.7"/>
<g clip-path="url(#clip0_2_102)">
<path d="M129.635 3.54002C128.802 5.53829 127.724 7.42526 126.425 9.15752C123.645 6.27803 120.315 3.98564 116.634 2.41608C112.952 0.846527 108.992 0.0317187 104.99 0.0199057C100.987 0.00809273 97.0233 0.799516 93.3322 2.34731C89.6411 3.89511 86.2981 6.1678 83.5012 9.03083C80.7042 11.8939 78.5102 15.289 77.049 19.0152C75.5878 22.7414 74.8892 26.723 74.9944 30.7241C75.0997 34.7252 76.0067 38.6644 77.6618 42.3087C79.3169 45.9529 81.6864 49.228 84.63 51.94L85.74 52.9275C89.9568 56.4845 95.0759 58.8048 100.53 59.6316C105.985 60.4583 111.561 59.7592 116.643 57.6117C121.724 55.4641 126.112 51.9519 129.32 47.4641C132.529 42.9763 134.432 37.688 134.82 32.185C135.685 24.6525 133.4 15.0225 129.635 3.54002ZM88.95 52.1875C88.6327 52.5771 88.207 52.864 87.7268 53.0118C87.2465 53.1597 86.7333 53.1619 86.2517 53.0182C85.7702 52.8746 85.3421 52.5915 85.0214 52.2046C84.7007 51.8178 84.5018 51.3446 84.4498 50.8448C84.3978 50.345 84.4951 49.841 84.7294 49.3965C84.9637 48.952 85.3244 48.5868 85.7661 48.3472C86.2077 48.1075 86.7105 48.0041 87.2109 48.05C87.7112 48.0959 88.1868 48.289 88.5775 48.605C89.0894 49.0385 89.414 49.653 89.4834 50.3201C89.5528 50.9873 89.3617 51.658 88.95 52.1875ZM129.448 43.2325C122.1 53.0475 106.298 49.715 96.2325 50.2075C96.2325 50.2075 94.4425 50.3325 92.6525 50.5775C92.6525 50.5775 93.3325 50.27 94.1975 49.96C101.298 47.4925 104.63 46.9975 108.95 44.775C117.038 40.64 125.125 31.565 126.73 22.18C123.643 31.195 114.26 38.9725 105.74 42.12C99.875 44.2825 89.32 46.38 89.32 46.38L88.8875 46.1325C81.725 42.615 81.48 27.0575 94.5675 22.0575C100.308 19.8325 105.743 21.07 111.975 19.5875C118.583 18.045 126.238 13.105 129.325 6.62252C132.78 17.0575 136.978 33.23 129.448 43.2325Z" fill="#CE0000" fill-opacity="0.7"/>
</g>
<path d="M157.5 37.5V22.5H166.25C167.25 22.5 168.125 22.875 168.875 23.625C169.625 24.375 170 25.25 170 26.25V28.75C170 29.75 169.625 30.625 168.875 31.375C168.125 32.125 167.25 32.5 166.25 32.5H161.25V37.5H157.5ZM173.75 37.5V22.5H177.5V27.5H182.5V22.5H186.25V37.5H182.5V31.25H177.5V37.5H173.75ZM191.25 37.5V22.5H200C201 22.5 201.875 22.875 202.625 23.625C203.375 24.375 203.75 25.25 203.75 26.25V28.75C203.75 29.75 203.375 30.625 202.625 31.375C201.875 32.125 201 32.5 200 32.5H195V37.5H191.25ZM161.25 28.75H166.25V26.25H161.25V28.75ZM195 28.75H200V26.25H195V28.75Z" fill="#CE0000" fill-opacity="0.7"/>
<g clip-path="url(#clip1_2_102)">
<path d="M283 58V60H285V58H283ZM283 2H285V0H283V2ZM259 2V0H258.172L257.584 0.584L259 2ZM227 34L225.584 32.584L225 33.172V34H227ZM227 58H225V60H227V58ZM243 42L242.104 43.788L242.18 43.828L242.26 43.856L243 42ZM243 18V16C242.47 16 241.961 16.2107 241.586 16.5858C241.211 16.9609 241 17.4696 241 18H243ZM267 18L268.856 17.256L268.824 17.18L268.788 17.104L267 18ZM285 58V2H281V58H285ZM283 0H259V4H283V0ZM257.584 0.584L225.584 32.584L228.416 35.416L260.416 3.416L257.584 0.584ZM225 34V58H229V34H225ZM227 60H283V56H227V60ZM281.584 0.584L225.584 56.584L228.416 59.416L284.416 3.416L281.584 0.584ZM245 42V18H241V42H245ZM243 20H267V16H243V20ZM242.26 43.856L282.256 59.856L283.744 56.144L243.744 40.144L242.26 43.856ZM265.144 18.744L281.144 58.744L284.856 57.256L268.856 17.256L265.144 18.744ZM257.212 2.896L265.212 18.896L268.788 17.104L260.788 1.104L257.212 2.896ZM226.104 35.788L242.104 43.788L243.896 40.212L227.896 32.212L226.104 35.788Z" fill="#CE0000" fill-opacity="0.7"/>
</g>
<g clip-path="url(#clip2_2_102)">
<path d="M300.938 29.9578V59.2547H359.531V0.66095H300.938V29.9578ZM348.155 27.6141C349.558 27.9397 350.834 28.6737 351.82 29.7234C352.364 30.289 352.836 30.9186 353.227 31.5984C353.227 31.6735 350.695 33.3844 349.153 34.3406C349.097 34.3781 348.872 34.1344 348.623 33.7641C348.342 33.2783 347.942 32.8718 347.461 32.5824C346.98 32.293 346.433 32.1303 345.872 32.1094C344.095 31.9875 342.952 32.9203 342.961 34.4531C342.946 34.8348 343.034 35.2134 343.214 35.55C343.603 36.3609 344.33 36.8438 346.608 37.8281C350.803 39.6328 352.598 40.8234 353.714 42.5156C354.961 44.3906 355.237 47.4188 354.394 49.6594C353.456 52.0969 351.159 53.7516 347.911 54.3C346.427 54.4699 344.928 54.4542 343.448 54.2531C341.19 53.8868 339.107 52.8115 337.5 51.1828C336.961 50.5875 335.911 49.0359 335.977 48.9235C336.148 48.7964 336.328 48.682 336.516 48.5813L338.672 47.3438L340.355 46.3688L340.706 46.8891C341.3 47.7378 342.055 48.461 342.928 49.0172C344.803 50.0016 347.362 49.8656 348.628 48.7266C349.053 48.3092 349.318 47.756 349.377 47.1633C349.436 46.5706 349.286 45.9759 348.952 45.4828C348.483 44.8313 347.545 44.2828 344.925 43.1391C341.902 41.8359 340.598 41.0297 339.408 39.7453C338.665 38.8978 338.116 37.8978 337.8 36.8156C337.564 35.5793 337.53 34.3131 337.697 33.0656C338.32 30.1453 340.509 28.1063 343.706 27.5016C345.187 27.3184 346.686 27.3595 348.155 27.6234V27.6141ZM334.402 30.0703V32.4703H326.794V54.1406H321.398V32.4656H313.772V30.1219C313.751 29.315 313.773 28.5077 313.838 27.7031C313.866 27.6656 318.525 27.6469 324.15 27.6563H334.373L334.402 30.0703Z" fill="#E1E1E1" fill-opacity="0.7"/>
</g>
<path d="M14.75 113.437L6.25 105L33.75 77.5H50.6875L14.75 113.437ZM33.75 132.5L18.9375 117.687L33.75 102.875H50.6875L35.875 117.687L50.6875 132.5H33.75Z" fill="#CE0000" fill-opacity="0.7"/>
<path d="M77.5 102.5V107.5C77.5 107.5 82.5 107.5 82.5 117.5V120C82.5 121.989 83.2902 123.897 84.6967 125.303C86.1032 126.71 88.0109 127.5 90 127.5H120C121.989 127.5 123.897 126.71 125.303 125.303C126.71 123.897 127.5 121.989 127.5 120V117.5C127.5 107.5 132.5 107.5 132.5 107.5V102.5C132.5 102.5 127.5 102.5 127.5 92.5V90C127.5 88.0109 126.71 86.1032 125.303 84.6967C123.897 83.2902 121.989 82.5 120 82.5H90C88.0109 82.5 86.1032 83.2902 84.6967 84.6967C83.2902 86.1032 82.5 88.0109 82.5 90V92.5C82.5 102.5 77.5 102.5 77.5 102.5ZM126.685 105C126.61 105.07 126.536 105.141 126.465 105.215C123.945 107.733 122.5 111.73 122.5 117.5V120C122.5 120.663 122.237 121.299 121.768 121.768C121.299 122.237 120.663 122.5 120 122.5H90C89.337 122.5 88.7011 122.237 88.2322 121.768C87.7634 121.299 87.5 120.663 87.5 120V117.5C87.5 111.73 86.055 107.733 83.535 105.215C83.4628 105.142 83.3895 105.071 83.315 105C83.3902 104.93 83.4635 104.859 83.535 104.785C86.055 102.267 87.5 98.27 87.5 92.5V90C87.5 89.337 87.7634 88.7011 88.2322 88.2322C88.7011 87.7634 89.337 87.5 90 87.5H120C120.663 87.5 121.299 87.7634 121.768 88.2322C122.237 88.7011 122.5 89.337 122.5 90V92.5C122.5 98.27 123.945 102.267 126.465 104.785L126.685 105ZM96.25 92.5V117.5H108.75C110.373 117.501 111.952 116.975 113.251 116.002C114.549 115.029 115.497 113.661 115.952 112.103C116.407 110.545 116.345 108.882 115.774 107.363C115.204 105.844 114.156 104.55 112.787 103.677C113.43 102.536 113.762 101.247 113.751 99.9372C113.74 98.6277 113.386 97.3439 112.725 96.2135C112.064 95.0831 111.118 94.1455 109.982 93.494C108.846 92.8425 107.56 92.4998 106.25 92.5H96.25ZM101.25 102.5V97.5H106.25C106.913 97.5 107.549 97.7634 108.018 98.2322C108.487 98.7011 108.75 99.337 108.75 100C108.75 100.663 108.487 101.299 108.018 101.768C107.549 102.237 106.913 102.5 106.25 102.5H101.25ZM101.25 107.5H108.75C109.413 107.5 110.049 107.763 110.518 108.232C110.987 108.701 111.25 109.337 111.25 110C111.25 110.663 110.987 111.299 110.518 111.768C110.049 112.237 109.413 112.5 108.75 112.5H101.25V107.5Z" fill="#CE0000" fill-opacity="0.7"/>
<path d="M180 90C173.325 90 169.175 93.325 167.5 100C170 96.675 172.925 95.425 176.25 96.25C178.15 96.725 179.525 98.1 181.025 99.625C183.475 102.125 186.25 105 192.5 105C199.175 105 203.325 101.675 205 95C202.5 98.325 199.575 99.575 196.25 98.75C194.35 98.275 193 96.9 191.475 95.375C189.025 92.875 186.25 90 180 90ZM167.5 105C160.825 105 156.675 108.325 155 115C157.5 111.675 160.425 110.425 163.75 111.25C165.65 111.725 167 113.1 168.525 114.625C170.975 117.125 173.75 120 180 120C186.675 120 190.825 116.675 192.5 110C190 113.325 187.075 114.575 183.75 113.75C181.85 113.275 180.5 111.9 178.975 110.375C176.525 107.875 173.75 105 167.5 105Z" fill="#E1E1E1" fill-opacity="0.7"/>
<path fill-rule="evenodd" clip-rule="evenodd" d="M281 91.852L255 76.68L229 91.852V118.148L233.024 120.496L241.252 117.168C242.359 116.72 243.307 115.951 243.975 114.96C244.643 113.97 245 112.803 245 111.608V91H249V111.608C249 113.599 248.405 115.545 247.292 117.196C246.179 118.848 244.598 120.129 242.752 120.876L237.392 123.044L255 133.32L281 118.152V91.852ZM253 99C253 96.8783 253.843 94.8434 255.343 93.3431C256.843 91.8428 258.878 91 261 91H265.668C269.716 91 273 94.28 273 98.332V99H269V98.332C269 97.8944 268.914 97.4611 268.746 97.0569C268.579 96.6526 268.333 96.2853 268.024 95.9759C267.715 95.6665 267.347 95.4211 266.943 95.2536C266.539 95.0862 266.106 95 265.668 95H261C259.939 95 258.922 95.4214 258.172 96.1716C257.421 96.9217 257 97.9391 257 99C257 100.061 257.421 101.078 258.172 101.828C258.922 102.579 259.939 103 261 103H265C267.122 103 269.157 103.843 270.657 105.343C272.157 106.843 273 108.878 273 111C273 113.122 272.157 115.157 270.657 116.657C269.157 118.157 267.122 119 265 119H261C258.878 119 256.843 118.157 255.343 116.657C253.843 115.157 253 113.122 253 111H257C257 112.061 257.421 113.078 258.172 113.828C258.922 114.579 259.939 115 261 115H265C266.061 115 267.078 114.579 267.828 113.828C268.579 113.078 269 112.061 269 111C269 109.939 268.579 108.922 267.828 108.172C267.078 107.421 266.061 107 265 107H261C258.878 107 256.843 106.157 255.343 104.657C253.843 103.157 253 101.122 253 99Z" fill="#E1E1E1" fill-opacity="0.7"/>
<path d="M330 130C316.193 130 305 118.807 305 105C305 91.1925 316.193 80 330 80C343.807 80 355 91.1925 355 105C355 118.807 343.807 130 330 130ZM340 95H336.625V105H340V95ZM323.365 99.275L338.513 118.845L341.147 116.823L324.207 95H320V114.993H323.365V99.275Z" fill="#CE0000" fill-opacity="0.7"/>
<g clip-path="url(#clip3_2_102)">
<path d="M54.96 190.869C55.0969 190.584 55.0969 190.312 55.245 190.029C58.6031 176.844 50.6156 161.424 36.8756 153.3C42.9 161.424 45.2831 171.103 43.1831 179.796C43.017 180.563 42.7816 181.315 42.48 182.04C42.0946 181.824 41.7198 181.589 41.3569 181.337C41.3569 181.337 27.7613 172.929 13.1813 158.201C12.7613 157.781 21.0338 169.978 30.2813 179.657C25.9369 177.129 13.6013 168.3 5.88564 161.152C6.72564 162.684 7.99501 164.227 9.25501 165.772C15.6994 174.043 24.1181 184.14 34.2075 191.844C27.0581 196.2 17.1075 196.474 7.01064 191.844C4.49064 190.732 2.38126 189.324 -0.00186157 187.646C4.20751 194.237 10.7981 200.261 18.6506 203.486C28.0463 207.557 37.575 207.274 44.4413 203.486H44.5894C44.8613 203.349 45.1463 203.201 45.4294 202.929C48.7894 201.24 55.38 199.425 59.0213 206.434C60.0094 208.397 61.8263 199.286 54.96 190.869Z" fill="#CE0000" fill-opacity="0.7"/>
</g>
<path d="M120.075 156.107H110.97L105.033 166L99.075 156.11L92.46 156.107H77.0775L105.075 203.895L132.92 156.107H120.075ZM105.063 193.982L85.805 161.107H92.865L105.078 182.122L117.195 161.105H124.22L105.063 193.982Z" fill="#CE0000" fill-opacity="0.7"/>
<path d="M186.12 190.6C184.781 192.504 183.323 194.32 181.753 196.038C185.935 200.095 189.823 201.995 191.98 200.748C194.138 199.503 194.435 195.185 193.013 189.538C190.88 190.013 188.565 190.375 186.12 190.6ZM182.845 190.815C180.95 190.894 179.053 190.894 177.158 190.815C178.098 192.045 179.053 193.185 180 194.223C180.95 193.185 181.903 192.048 182.845 190.815ZM195.445 171.078C202.108 172.988 206.46 176.163 206.46 179.995C206.46 183.828 202.11 187.003 195.448 188.913C197.123 195.638 196.548 200.993 193.23 202.908C189.913 204.825 184.988 202.645 180 197.83C175.015 202.643 170.09 204.825 166.773 202.908C163.453 200.993 162.88 195.638 164.555 188.913C157.893 187.003 153.543 183.828 153.543 179.995C153.543 176.163 157.893 172.988 164.555 171.078C162.88 164.353 163.455 158.998 166.773 157.08C170.09 155.165 175.015 157.345 180 162.16C184.988 157.345 189.913 155.165 193.23 157.08C196.548 158.998 197.123 164.353 195.448 171.078M193.015 170.458C194.44 164.808 194.14 160.493 191.983 159.245C189.825 158 185.938 159.9 181.758 163.958C183.326 165.676 184.784 167.492 186.123 169.395C188.568 169.62 190.883 169.98 193.015 170.458ZM166.99 189.533C165.568 195.183 165.865 199.498 168.025 200.743C170.183 201.988 174.07 200.09 178.25 196.033C176.681 194.314 175.223 192.497 173.885 190.593C171.567 190.385 169.265 190.03 166.993 189.53M177.163 169.175C179.058 169.097 180.955 169.097 182.85 169.175C181.949 168.001 180.999 166.867 180 165.775C179.05 166.815 178.1 167.955 177.158 169.185M173.883 169.403C175.22 167.499 176.678 165.683 178.248 163.965C174.068 159.905 170.18 158.005 168.025 159.25C165.868 160.498 165.568 164.815 166.993 170.463C169.125 169.988 171.44 169.628 173.885 169.4M184.735 188.2C186.515 185.588 188.098 182.848 189.47 180C188.099 177.153 186.517 174.412 184.738 171.8C181.586 171.564 178.421 171.564 175.27 171.8C173.489 174.411 171.905 177.152 170.533 180C171.904 182.847 173.487 185.588 175.268 188.2C178.419 188.436 181.584 188.436 184.735 188.2ZM187.948 187.87C189.485 187.67 190.948 187.415 192.323 187.113C191.873 185.702 191.362 184.311 190.793 182.945C189.913 184.625 188.965 186.268 187.95 187.87M172.058 172.128C170.52 172.328 169.058 172.585 167.683 172.888C168.108 174.228 168.62 175.623 169.215 177.055C170.094 175.375 171.043 173.732 172.058 172.13M167.683 187.115C169.058 187.418 170.52 187.673 172.058 187.873C171.043 186.271 170.094 184.628 169.215 182.948C168.644 184.314 168.133 185.704 167.683 187.115ZM165.238 186.503C165.893 184.418 166.738 182.233 167.763 180.003C166.783 177.892 165.94 175.721 165.238 173.503C159.635 175.093 156.045 177.513 156.045 180.003C156.045 182.493 159.635 184.91 165.238 186.503ZM192.325 172.888C190.878 172.571 189.419 172.317 187.95 172.128C188.965 173.729 189.913 175.372 190.793 177.053C191.388 175.623 191.898 174.228 192.325 172.888ZM194.768 173.5C194.118 175.585 193.268 177.77 192.243 180C193.268 182.23 194.118 184.415 194.768 186.5C200.373 184.908 203.963 182.49 203.963 180C203.963 177.51 200.373 175.093 194.768 173.5ZM180 184.698C179.37 184.718 178.743 184.612 178.155 184.385C177.567 184.158 177.031 183.815 176.578 183.377C176.125 182.939 175.765 182.414 175.519 181.834C175.273 181.254 175.147 180.63 175.147 180C175.147 179.37 175.273 178.746 175.519 178.166C175.765 177.586 176.125 177.061 176.578 176.623C177.031 176.185 177.567 175.842 178.155 175.615C178.743 175.388 179.37 175.282 180 175.303C181.219 175.342 182.375 175.855 183.224 176.731C184.072 177.608 184.547 178.78 184.547 180C184.547 181.22 184.072 182.392 183.224 183.269C182.375 184.145 181.219 184.658 180 184.698Z" fill="#E1E1E1" fill-opacity="0.7"/>
<path d="M255 156.25L277.1 164.125L273.75 193.375L255 203.75L236.25 193.375L232.9 164.125L255 156.25ZM255 161.5L241.175 192.5H246.325L249.1 185.55H260.85L263.625 192.5H268.75L255 161.5ZM259.05 181.25H250.975L255 171.575L259.05 181.25Z" fill="#E1E1E1" fill-opacity="0.7"/>
<g clip-path="url(#clip4_2_102)">
<path d="M308 164.284L307.368 162.388C306.89 162.547 306.489 162.881 306.247 163.324C306.004 163.766 305.937 164.283 306.06 164.772L308 164.284ZM317.428 161.144L319.216 160.248C319 159.818 318.637 159.481 318.192 159.297C317.748 159.113 317.252 159.096 316.796 159.248L317.428 161.144ZM336.284 198.856L334.496 199.752C334.619 199.999 334.792 200.217 335.004 200.394C335.216 200.571 335.462 200.702 335.727 200.779C335.992 200.856 336.269 200.877 336.543 200.841C336.816 200.806 337.08 200.714 337.316 200.572L336.284 198.856ZM352 189.428L353.028 191.144C353.257 191.007 353.456 190.825 353.614 190.609C353.772 190.394 353.885 190.149 353.946 189.889C354.008 189.629 354.016 189.36 353.972 189.097C353.928 188.833 353.831 188.581 353.688 188.356L352 189.428ZM341 172.144L340.516 170.204C340.209 170.281 339.925 170.43 339.687 170.639C339.449 170.847 339.263 171.109 339.146 171.403C339.029 171.697 338.983 172.015 339.013 172.33C339.042 172.645 339.146 172.949 339.316 173.216L341 172.144ZM347.284 170.572L348.884 169.372C348.648 169.058 348.325 168.821 347.955 168.689C347.585 168.557 347.185 168.538 346.804 168.632L347.284 170.572ZM352 176.856L352.632 178.756C352.933 178.656 353.206 178.486 353.428 178.259C353.651 178.033 353.816 177.757 353.911 177.454C354.005 177.151 354.026 176.83 353.972 176.518C353.918 176.205 353.791 175.91 353.6 175.656L352 176.856ZM314.284 189.428L312.344 189.912C312.41 190.18 312.532 190.431 312.7 190.65C312.868 190.869 313.08 191.051 313.322 191.184C313.564 191.317 313.831 191.399 314.106 191.423C314.381 191.448 314.658 191.416 314.92 191.328L314.284 189.428ZM308.632 166.184L318.06 163.04L316.796 159.248L307.368 162.388L308.632 166.184ZM315.64 162.036L327.312 185.384L330.892 183.596L319.216 160.248L315.64 162.036ZM327.312 185.384L334.496 199.752L338.076 197.964L330.892 183.596L327.312 185.384ZM337.312 200.572L353.032 191.144L350.972 187.712L335.256 197.144L337.312 200.572ZM353.688 188.356L347.088 177.984L343.712 180.132L350.312 190.504L353.688 188.356ZM347.088 177.984L342.688 171.068L339.312 173.216L343.712 180.132L347.088 177.984ZM341.488 174.084L347.768 172.512L346.8 168.632L340.516 170.204L341.488 174.084ZM345.688 171.772L350.4 178.056L353.6 175.656L348.884 169.372L345.688 171.772ZM351.368 174.96L344.768 177.16L346.032 180.956L352.632 178.756L351.368 174.96ZM344.768 177.16L328.468 182.592L329.736 186.388L346.032 180.956L344.768 177.16ZM328.468 182.592L313.652 187.532L314.92 191.328L329.736 186.388L328.468 182.592ZM316.228 188.944L309.936 163.8L306.06 164.772L312.344 189.912L316.228 188.944ZM310 154H350V150H310V154ZM356 160V200H360V160H356ZM350 206H310V210H350V206ZM304 200V160H300V200H304ZM310 206C308.409 206 306.883 205.368 305.757 204.243C304.632 203.117 304 201.591 304 200H300C300 202.652 301.054 205.196 302.929 207.071C304.804 208.946 307.348 210 310 210V206ZM356 200C356 201.591 355.368 203.117 354.243 204.243C353.117 205.368 351.591 206 350 206V210C352.652 210 355.196 208.946 357.071 207.071C358.946 205.196 360 202.652 360 200H356ZM350 154C351.591 154 353.117 154.632 354.243 155.757C355.368 156.883 356 158.409 356 160H360C360 157.348 358.946 154.804 357.071 152.929C355.196 151.054 352.652 150 350 150V154ZM310 150C307.348 150 304.804 151.054 302.929 152.929C301.054 154.804 300 157.348 300 160H304C304 158.409 304.632 156.883 305.757 155.757C306.883 154.632 308.409 154 310 154V150Z" fill="#CE0000" fill-opacity="0.7"/>
</g>
<path d="M7.5 230L11.5 274.5L30 280L48.75 274.5L52.5 230H7.5ZM40.75 266.75L30 270L19.25 267L18.5 259.25H23.75L24.25 263L30 264.5L35.75 263L36.5 255.5H18.25L17.75 250.5H37L37.25 245.5H17.5L17 240.5H43.5L41 267L40.75 266.75Z" fill="#CE0000" fill-opacity="0.7"/>
<path d="M82.5 230L86.5 274.5L105 280L123.75 274.5L127.5 230H82.5ZM117.5 245H97.5L98 250H117.5L116 266.5L105.5 270L94.75 266.5L94 259H99L99.5 262.5L105.5 264.5L111.25 262.75L112 255.25H93.5L92.5 240H118.5L117.5 245Z" fill="#CE0000" fill-opacity="0.7"/>
<g clip-path="url(#clip5_2_102)">
<path d="M162 273H156C154.409 273 152.883 272.368 151.757 271.243C150.632 270.117 150 268.591 150 267V247C150 245.409 150.632 243.883 151.757 242.757C152.883 241.632 154.409 241 156 241H182V237H178V233H174V237H166V231C166 229.409 166.632 227.883 167.757 226.757C168.883 225.632 170.409 225 172 225H188C189.591 225 191.117 225.632 192.243 226.757C193.368 227.883 194 229.409 194 231V251C194 251.53 193.789 252.039 193.414 252.414C193.039 252.789 192.53 253 192 253H168C166.409 253 164.883 253.632 163.757 254.757C162.632 255.883 162 257.409 162 259V273Z" fill="#E1E1E1" fill-opacity="0.7"/>
<path d="M198 237V251C198 252.591 197.368 254.117 196.243 255.243C195.117 256.368 193.591 257 192 257H168C167.47 257 166.961 257.211 166.586 257.586C166.211 257.961 166 258.47 166 259V279C166 280.591 166.632 282.117 167.757 283.243C168.883 284.368 170.409 285 172 285H188C189.591 285 191.117 284.368 192.243 283.243C193.368 282.117 194 280.591 194 279V273H186V277H182V273H178V269H204C205.591 269 207.117 268.368 208.243 267.243C209.368 266.117 210 264.591 210 263V243C210 241.409 209.368 239.883 208.243 238.757C207.117 237.632 205.591 237 204 237H198Z" fill="#E1E1E1" fill-opacity="0.7"/>
</g>
<path d="M229.532 251.786C229.414 251.786 229.386 251.728 229.444 251.64L230.059 250.849C230.117 250.761 230.254 250.702 230.372 250.702H240.803C240.921 250.702 240.949 250.791 240.891 250.879L240.392 251.64C240.358 251.688 240.315 251.729 240.264 251.759C240.214 251.789 240.158 251.809 240.099 251.816L229.532 251.786ZM225.118 254.473C225 254.473 224.972 254.415 225.03 254.327L225.645 253.536C225.703 253.457 225.849 253.399 225.968 253.399H239.288C239.406 253.399 239.464 253.487 239.434 253.575L239.199 254.269C239.169 254.387 239.053 254.445 238.935 254.445L225.118 254.473ZM232.187 257.158C232.069 257.158 232.041 257.07 232.099 256.991L232.509 256.258C232.568 256.17 232.686 256.082 232.802 256.082H238.643C238.761 256.082 238.819 256.17 238.819 256.286L238.761 256.989C238.761 257.107 238.643 257.194 238.556 257.194L232.187 257.158ZM262.509 251.259C260.674 251.728 259.414 252.081 257.597 252.549C257.158 252.667 257.138 252.696 256.748 252.257C256.318 251.758 255.996 251.436 255.381 251.143C253.536 250.245 251.758 250.498 250.097 251.582C248.104 252.872 247.089 254.766 247.118 257.128C247.136 259.472 248.749 261.396 251.053 261.718C253.046 261.982 254.706 261.279 256.024 259.794C256.288 259.472 256.523 259.121 256.815 258.711H251.171C250.566 258.711 250.41 258.33 250.614 257.831C251.074 256.752 251.572 255.69 252.109 254.647C252.174 254.508 252.277 254.389 252.407 254.306C252.537 254.223 252.688 254.179 252.842 254.179H263.477C263.419 254.97 263.419 255.761 263.301 256.552C262.995 258.632 262.169 260.601 260.899 262.275C258.799 265.048 256.056 266.777 252.578 267.236C249.716 267.617 247.05 267.06 244.716 265.312C242.558 263.681 241.328 261.514 241.005 258.829C240.634 255.645 241.562 252.784 243.495 250.264C245.565 247.549 248.31 245.829 251.668 245.214C254.413 244.716 257.049 245.038 259.412 246.639C260.964 247.665 262.069 249.071 262.8 250.761C262.976 251.025 262.86 251.171 262.509 251.259ZM272.177 267.422C269.52 267.354 267.099 266.601 265.048 264.844C263.349 263.41 262.228 261.408 261.894 259.209C261.368 255.909 262.275 252.988 264.257 250.382C266.396 247.579 268.963 246.124 272.441 245.509C275.421 244.982 278.222 245.274 280.772 247.003C283.076 248.576 284.513 250.704 284.884 253.507C285.383 257.452 284.248 260.666 281.524 263.419C279.6 265.372 277.238 266.602 274.511 267.15C273.729 267.306 272.938 267.324 272.177 267.422ZM279.131 255.615C279.101 255.234 279.101 254.942 279.043 254.647C278.516 251.756 275.859 250.127 273.086 250.761C270.371 251.376 268.614 253.104 267.969 255.849C267.452 258.126 268.556 260.439 270.666 261.367C272.267 262.071 273.879 261.982 275.421 261.191C277.734 259.989 278.985 258.126 279.131 255.615Z" fill="#E1E1E1" fill-opacity="0.7"/>
<path d="M330 231.865C313.433 231.865 300 240.862 300 251.957C300 261.7 310.36 269.817 324.1 271.657V265.65C316.79 263.362 311.788 258.762 311.788 253.457C311.788 245.87 321.998 239.722 334.588 239.722C347.182 239.722 356.48 243.93 356.48 253.457C356.48 258.397 353.983 261.905 349.825 264.137C350.05 264.302 350.26 264.457 350.47 264.677C350.892 265.05 351.095 265.585 351.4 266.037C356.72 262.412 360 257.445 360 251.96C360 240.86 346.568 231.865 330 231.865ZM324.722 244.34V278.13L334.955 278.125L334.95 264.897H337.7C338.263 264.897 338.502 265.062 339.072 265.522C339.752 266.072 340.86 267.977 340.86 267.977L346.27 278.135L357.838 278.13L350.677 266.065C350.677 266.065 350.463 265.582 350.015 265.107C349.589 264.684 349.098 264.333 348.56 264.067C347.505 263.532 345.688 262.982 345.688 262.982C345.688 262.982 354.632 262.322 354.632 253.417C354.632 244.512 345.272 244.342 345.272 244.342L324.722 244.34ZM335.04 251.665L341.235 251.67C341.235 251.67 344.107 251.515 344.107 254.487C344.107 257.4 341.235 257.412 341.235 257.412H335.04V251.665ZM339.425 266.962C338.19 267.085 336.895 267.16 335.575 267.182V271.7C337.576 271.45 339.556 271.055 341.5 270.517L340.322 268.29C340.322 268.29 340.052 267.832 339.702 267.305C339.605 267.17 339.503 267.06 339.425 266.962Z" fill="#CE0000" fill-opacity="0.7"/>
<g clip-path="url(#clip6_2_102)">
<path d="M8.00001 342H28M10 318H36C37.5913 318 39.1174 318.632 40.2427 319.757C41.3679 320.883 42 322.409 42 324C42 325.591 41.3679 327.117 40.2427 328.243C39.1174 329.368 37.5913 330 36 330H18M18 318V342M30 330H34C36.1217 330 38.1566 330.843 39.6569 332.343C41.1572 333.843 42 335.878 42 338C42 339.061 42.4214 340.078 43.1716 340.828C43.9217 341.579 44.9391 342 46 342H52M30 302L35.376 306.44L42.148 304.772L45.068 311.108L51.892 312.544L51.772 319.516L57.3 323.768L54.16 330L57.296 336.232L51.768 340.484L51.888 347.456L45.06 348.892L42.144 355.228L35.372 353.556L30 358L24.624 353.56L17.852 355.228L14.932 348.892L8.10801 347.456L8.22801 340.484L2.70001 336.232L5.84001 330L2.70001 323.768L8.22801 319.52L8.10801 312.548L14.932 311.112L17.852 304.776L24.624 306.444L30 302Z" stroke="#CE0000" stroke-opacity="0.7" stroke-width="4" stroke-linejoin="round"/>
</g>
<path d="M80 337.5C80.663 337.5 81.2989 337.763 81.7678 338.232C82.2366 338.701 82.5 339.337 82.5 340C82.5 340.663 82.2366 341.299 81.7678 341.768C81.2989 342.237 80.663 342.5 80 342.5C79.337 342.5 78.7011 342.237 78.2322 341.768C77.7634 341.299 77.5 340.663 77.5 340C77.5 339.337 77.7634 338.701 78.2322 338.232C78.7011 337.763 79.337 337.5 80 337.5ZM127.5 342.5H122.5V322.5H117.5V317.5H132.5V322.5H127.5V342.5ZM115 317.5V322.5H110V327.5H115V332.5H110V337.5H115V342.5H105V317.5H115ZM102.5 317.5V342.5H97.5L90 327.5V342.5H85V317.5H90L97.5 332.5V317.5H102.5Z" fill="#CE0000" fill-opacity="0.7"/>
<g clip-path="url(#clip7_2_102)">
<path d="M179.095 300C178.725 300 178.578 301.722 178.465 307.312C178.32 314.462 178.29 314.685 177.19 317.097C176.29 319.08 173.133 323.787 172.098 324.697C171.165 325.517 169.14 328.597 168.148 330.7C166.373 334.46 166.5 339.5 168.048 343.317C169.343 346.302 171.203 348.708 174.198 351.273C176.548 353.285 177.273 353.57 177.635 352.632C177.758 352.312 177.23 351.202 176.428 350.088C175.645 348.998 174.32 346.682 173.483 344.94C170.028 337.625 171.733 331.547 175.738 324.827C177.963 321.345 179.245 318.222 179.685 315.198C180.235 311.41 179.793 300 179.095 300ZM177.203 303.038C176.738 303.038 176.633 303.688 176.633 306.593C176.633 308.548 176.433 310.727 176.19 311.438C175.41 313.722 173.305 315.78 167.485 319.948C163.275 322.96 159.745 326.578 158.385 329.278C154.22 337.525 157.898 347.555 166.935 352.61C170.968 354.865 174.35 355.743 174.35 354.53C174.35 354.215 174.215 353.96 174.048 353.96C173.88 353.96 172.468 353.13 170.913 352.115C164.188 347.728 161.045 342.298 161.545 335.91C161.92 331.135 163.728 328.21 171.035 320.573C177.34 313.983 177.76 313.148 177.768 307.312C177.77 303.763 177.678 303.038 177.203 303.038ZM180.973 304.617C180.715 304.66 180.623 306.88 180.618 311.875L180.608 319.19L178.748 326.22C176.673 332.57 176.363 339.052 177.885 345.532C179.28 351.037 179.875 352.127 181.803 352.675C182.66 352.92 184.028 353.562 184.843 354.105C186.683 355.33 188.33 355.193 191.63 353.525C196.43 351.1 199.653 347.97 201.798 343.643C203.66 339.523 203.938 334.368 201.968 330.268C200.218 326.733 197.263 323.882 191.073 319.775C185.668 316.185 184.53 315.225 183.198 313.145C182.393 311.887 182.275 311.335 182.428 309.535C182.528 308.365 182.743 307.09 182.908 306.7C183.16 306.102 183.08 306.03 182.403 306.245C181.753 306.45 181.553 306.312 181.353 305.53C181.2 304.917 181.073 304.6 180.973 304.617ZM182.758 316.083C182.843 316.065 183.095 316.365 183.388 316.847C183.748 317.44 185.943 319.347 188.268 321.09C195.488 326.562 201.443 332.035 198.485 341.59C197.473 344.455 196.01 346.765 193.578 349.335C192.218 350.772 190.413 352.06 189.753 352.06C189.635 352.06 190.383 350.985 191.413 349.675C194.755 345.425 196.343 340.38 195.888 335.49C195.468 331 191.995 325.552 186.505 320.765C184.225 318.775 182.71 316.925 182.725 316.15C182.725 316.11 182.738 316.087 182.758 316.083ZM180.035 354.812C179.515 354.797 179.293 355.685 179.293 357.615C179.293 359.965 179.338 360.085 180.148 359.97C180.903 359.865 181.015 359.595 181.115 357.723C181.195 356.19 181.068 355.467 180.658 355.125C180.415 354.925 180.208 354.817 180.035 354.812ZM177.405 355.513C177.095 355.507 176.84 355.862 176.588 356.588C176.375 357.2 175.955 357.79 175.655 357.905C174.85 358.215 174.995 359.28 175.843 359.28C176.248 359.28 176.848 359.007 177.178 358.68C178.28 357.575 178.625 356.62 178.133 356.025C177.855 355.69 177.618 355.517 177.408 355.513H177.405ZM182.59 355.67C181.81 355.67 181.89 357.195 182.723 358.255C183.495 359.235 184.993 359.673 184.993 358.915C184.993 358.285 183.055 355.67 182.59 355.67Z" fill="#CE0000" fill-opacity="0.7"/>
</g>
<path fill-rule="evenodd" clip-rule="evenodd" d="M262.93 300H252.49V314.83C251.004 314.471 249.478 314.303 247.95 314.33C237.04 314.327 230 320.762 230 330.682C230 340.978 236.638 346.34 249.388 346.353C253.645 346.353 257.583 345.978 262.93 345.028V300ZM249.335 322.443C250.625 322.443 251.635 322.567 252.855 322.943V338.562C251.365 338.75 250.425 338.812 249.27 338.812C243.92 338.812 241.007 335.958 241.007 330.787C241.007 325.475 244.058 322.443 249.335 322.443Z" fill="#CE0000" fill-opacity="0.7"/>
<path d="M280 338.083V315.538H269.575V334.725C269.575 343.193 269.105 346.41 267.612 349.19C266.187 351.908 263.957 353.69 259.35 355.705L269.037 360C273.645 357.845 275.875 355.893 277.567 352.8C279.382 349.58 280 345.845 280 338.083ZM278.962 300H268.522V309.983H278.962V300Z" fill="#CE0000" fill-opacity="0.7"/>
<path d="M324.814 343.203L329.845 332.497L341.936 332.486L346.134 334.51L348.95 334.448L353.514 338.744L335.941 351.938C335.941 351.938 333.368 348.221 328.402 347.72C323.983 347.273 314.608 349.217 311.958 349.925C306.683 351.334 308.972 356.685 309.343 357.235C302.912 353.621 300.602 351.731 300.065 348.515C299.527 345.299 302.512 343.878 302.524 343.36C302.575 342.409 302.766 341.698 303.135 340.896C313.7 342.894 317.688 342.973 324.814 343.203ZM315.396 338.153L323.247 331.626L322.609 338.342L319.038 339.406L315.396 338.153ZM329.857 328.147V325.971L337.483 321.228C345.174 319.957 352.497 319.179 360 318.159L352.434 331.552L346.258 331.495L329.857 328.147ZM303.396 339.572C312.073 331.83 313.877 326.044 315.781 322.512C316.781 320.615 326.009 315.087 340.356 305.217V310.155L359.929 302.765L356.008 314.979C350.384 317.91 342.964 317.497 340.201 318.046C336.21 318.487 320.702 324.492 319.03 328.082C313.282 337.944 303.396 339.572 303.396 339.572Z" fill="#E1E1E1" fill-opacity="0.7"/>
<defs>
<clipPath id="clip0_2_102">
<rect width="60" height="60" fill="white" transform="translate(75)"/>
</clipPath>
<clipPath id="clip1_2_102">
<rect width="60" height="60" fill="white" transform="translate(225)"/>
</clipPath>
<clipPath id="clip2_2_102">
<rect width="60" height="60" fill="white" transform="translate(300)"/>
</clipPath>
<clipPath id="clip3_2_102">
<rect width="60" height="60" fill="white" transform="translate(0 150)"/>
</clipPath>
<clipPath id="clip4_2_102">
<rect width="60" height="60" fill="white" transform="translate(300 150)"/>
</clipPath>
<clipPath id="clip5_2_102">
<rect width="60" height="60" fill="white" transform="translate(150 225)"/>
</clipPath>
<clipPath id="clip6_2_102">
<rect width="60" height="60" fill="white" transform="translate(0 300)"/>
</clipPath>
<clipPath id="clip7_2_102">
<rect width="60" height="60" fill="white" transform="translate(150 300)"/>
</clipPath>
</defs>
</svg>
